<?xml version="1.0" encoding="utf-8" standalone="no"?>
<!DOCTYPE svg PUBLIC "-//W3C//DTD SVG 1.1//EN" "http://www.w3.org/Graphics/SVG/1.1/DTD/svg11.dtd">

<svg width="216mm" height="279mm" viewBox="0 0 216 279" xmlns="http://www.w3.org/2000/svg" xmlns:xlink="http://www.w3.org/1999/xlink" version="1.1" style="stroke:black; fill:none; stroke-width:0.5pt; stroke-linejoin:round; text-anchor:middle" font-family="Helvetica, Arial, FreeSans, Sans, sans, sans-serif">

<g>

<rect x="12.0" y="7.5" width="24.0" height="24.0" fill="black" stroke="none" />

<rect x="12.0" y="55.5" width="24.0" height="24.0" fill="black" stroke="none" />

<rect x="12.0" y="103.5" width="24.0" height="24.0" fill="black" stroke="none" />

<rect x="12.0" y="151.5" width="24.0" height="24.0" fill="black" stroke="none" />

<rect x="12.0" y="199.5" width="24.0" height="24.0" fill="black" stroke="none" />

<rect x="12.0" y="247.5" width="24.0" height="24.0" fill="black" stroke="none" />

<rect x="36.0" y="31.5" width="24.0" height="24.0" fill="black" stroke="none" />

<rect x="36.0" y="79.5" width="24.0" height="24.0" fill="black" stroke="none" />

<rect x="36.0" y="127.5" width="24.0" height="24.0" fill="black" stroke="none" />

<rect x="36.0" y="175.5" width="24.0" height="24.0" fill="black" stroke="none" />

<rect x="36.0" y="223.5" width="24.0" height="24.0" fill="black" stroke="none" />

<rect x="60.0" y="7.5" width="24.0" height="24.0" fill="black" stroke="none" />

<rect x="60.0" y="55.5" width="24.0" height="24.0" fill="black" stroke="none" />

<rect x="60.0" y="103.5" width="24.0" height="24.0" fill="black" stroke="none" />

<rect x="60.0" y="151.5" width="24.0" height="24.0" fill="black" stroke="none" />

<rect x="60.0" y="199.5" width="24.0" height="24.0" fill="black" stroke="none" />

<rect x="60.0" y="247.5" width="24.0" height="24.0" fill="black" stroke="none" />

<rect x="84.0" y="31.5" width="24.0" height="24.0" fill="black" stroke="none" />

<rect x="84.0" y="79.5" width="24.0" height="24.0" fill="black" stroke="none" />

<rect x="84.0" y="127.5" width="24.0" height="24.0" fill="black" stroke="none" />

<rect x="84.0" y="175.5" width="24.0" height="24.0" fill="black" stroke="none" />

<rect x="84.0" y="223.5" width="24.0" height="24.0" fill="black" stroke="none" />

<rect x="108.0" y="7.5" width="24.0" height="24.0" fill="black" stroke="none" />

<rect x="108.0" y="55.5" width="24.0" height="24.0" fill="black" stroke="none" />

<rect x="108.0" y="103.5" width="24.0" height="24.0" fill="black" stroke="none" />

<rect x="108.0" y="151.5" width="24.0" height="24.0" fill="black" stroke="none" />

<rect x="108.0" y="199.5" width="24.0" height="24.0" fill="black" stroke="none" />

<rect x="108.0" y="247.5" width="24.0" height="24.0" fill="black" stroke="none" />

<rect x="132.0" y="31.5" width="24.0" height="24.0" fill="black" stroke="none" />

<rect x="132.0" y="79.5" width="24.0" height="24.0" fill="black" stroke="none" />

<rect x="132.0" y="127.5" width="24.0" height="24.0" fill="black" stroke="none" />

<rect x="132.0" y="175.5" width="24.0" height="24.0" fill="black" stroke="none" />

<rect x="132.0" y="223.5" width="24.0" height="24.0" fill="black" stroke="none" />

<rect x="156.0" y="7.5" width="24.0" height="24.0" fill="black" stroke="none" />

<rect x="156.0" y="55.5" width="24.0" height="24.0" fill="black" stroke="none" />

<rect x="156.0" y="103.5" width="24.0" height="24.0" fill="black" stroke="none" />

<rect x="156.0" y="151.5" width="24.0" height="24.0" fill="black" stroke="none" />

<rect x="156.0" y="199.5" width="24.0" height="24.0" fill="black" stroke="none" />

<rect x="156.0" y="247.5" width="24.0" height="24.0" fill="black" stroke="none" />

<rect x="180.0" y="31.5" width="24.0" height="24.0" fill="black" stroke="none" />

<rect x="180.0" y="79.5" width="24.0" height="24.0" fill="black" stroke="none" />

<rect x="180.0" y="127.5" width="24.0" height="24.0" fill="black" stroke="none" />

<rect x="180.0" y="175.5" width="24.0" height="24.0" fill="black" stroke="none" />

<rect x="180.0" y="223.5" width="24.0" height="24.0" fill="black" stroke="none" />

</g>

</svg>

